<?xml version="1.0" encoding="utf-8"?>
<!-- Generator: Adobe Illustrator 22.0.1, SVG Export Plug-In . SVG Version: 6.00 Build 0)  -->
<svg version="1.1" id="Layer_1" xmlns="http://www.w3.org/2000/svg" xmlns:xlink="http://www.w3.org/1999/xlink" x="0px" y="0px"
	 viewBox="0 0 491.573 290.023" style="enable-background:new 0 0 491.573 290.023;" xml:space="preserve">
<g>
	<path style="fill:#008FD0;" d="M138.267,59.151c0,5.665-0.982,10.615-2.946,14.852c-1.964,4.238-4.65,7.762-8.062,10.573
		c-3.41,2.812-7.4,4.92-11.968,6.325c-4.569,1.405-9.479,2.108-14.728,2.108c-2.026,0-4.248-0.27-6.667-0.806
		c-2.418-0.537-4.868-1.209-7.348-2.015c-2.48-0.807-4.868-1.675-7.163-2.604c-2.294-0.931-4.331-1.808-6.108-2.636l2.729-25.549
		c3.513,2.108,7.411,3.711,11.689,4.806c4.279,1.096,8.485,1.644,12.62,1.644c0.785,0,1.736-0.031,2.853-0.093
		c1.116-0.063,2.18-0.248,3.194-0.559c1.012-0.31,1.87-0.775,2.573-1.395c0.703-0.62,1.054-1.509,1.054-2.667
		c0-0.785-0.248-1.457-0.744-2.016c-0.496-0.558-1.138-1.012-1.922-1.364c-0.786-0.351-1.674-0.62-2.667-0.806
		c-0.992-0.187-1.964-0.32-2.915-0.403c-0.952-0.083-1.84-0.124-2.667-0.124c-0.828,0-1.488,0-1.984,0
		c-3.556,0-6.791-0.62-9.705-1.86c-2.915-1.24-5.417-2.966-7.504-5.178c-2.088-2.211-3.711-4.837-4.868-7.876
		c-1.158-3.038-1.736-6.334-1.736-9.891c0-4.877,0.981-9.25,2.946-13.115c1.963-3.865,4.589-7.152,7.875-9.86
		c3.287-2.707,7.059-4.784,11.317-6.232c4.257-1.447,8.66-2.17,13.208-2.17c2.025,0,4.113,0.073,6.263,0.217
		c2.149,0.146,4.289,0.403,6.418,0.775c2.129,0.372,4.207,0.848,6.232,1.426c2.025,0.58,3.947,1.302,5.767,2.17l-2.356,25.177
		c-2.812-0.951-5.757-1.746-8.836-2.388c-3.081-0.64-6.088-0.961-9.023-0.961c-0.538,0-1.23,0.011-2.078,0.031
		c-0.848,0.021-1.736,0.083-2.666,0.186c-0.931,0.104-1.871,0.259-2.822,0.465c-0.952,0.208-1.798,0.486-2.542,0.837
		c-0.744,0.352-1.344,0.816-1.798,1.395c-0.456,0.58-0.662,1.262-0.62,2.046c0.041,0.91,0.382,1.644,1.023,2.201
		c0.641,0.559,1.467,0.992,2.48,1.303c1.013,0.31,2.129,0.527,3.349,0.651c1.219,0.124,2.428,0.197,3.628,0.217
		c1.199,0.021,2.315,0.021,3.349,0c1.033-0.021,1.881,0.01,2.542,0.093c3.307,0.208,6.284,0.91,8.93,2.108
		c2.645,1.2,4.888,2.791,6.728,4.775c1.839,1.984,3.245,4.352,4.217,7.1C137.781,52.816,138.267,55.844,138.267,59.151z"/>
	<path style="fill:#008FD0;" d="M214.418,32.486c0,4.01-0.6,7.565-1.799,10.666s-2.844,5.809-4.93,8.124
		c-2.088,2.316-4.537,4.279-7.348,5.891c-2.813,1.612-5.82,2.925-9.024,3.938c-3.204,1.014-6.521,1.758-9.953,2.232
		c-3.432,0.476-6.801,0.735-10.108,0.775V93.01H142.36c0-9.466,0.021-18.892,0.062-28.277c0.041-9.384,0.103-18.852,0.186-28.401
		c0.083-5.043,0.103-10.086,0.062-15.131c-0.042-5.043,0.062-10.128,0.31-15.255c5.292-1.571,10.583-2.749,15.875-3.535
		c5.292-0.785,10.749-1.178,16.371-1.178c3.183,0,6.366,0.259,9.55,0.775c3.183,0.517,6.232,1.333,9.146,2.449
		c2.916,1.116,5.623,2.512,8.125,4.186c2.5,1.675,4.66,3.669,6.48,5.984c1.818,2.316,3.254,4.951,4.309,7.906
		C213.891,25.49,214.418,28.807,214.418,32.486z M186.885,34.595c0-2.687-0.817-4.785-2.449-6.294
		c-1.634-1.509-3.752-2.264-6.356-2.264c-0.868,0-1.768,0.073-2.697,0.217c-0.931,0.146-1.809,0.321-2.636,0.527l-0.744,18.107
		c0.579,0.083,1.137,0.124,1.674,0.124c0.537,0,1.095,0,1.674,0c1.488,0,2.924-0.248,4.31-0.744c1.385-0.496,2.614-1.209,3.69-2.14
		c1.075-0.93,1.932-2.025,2.574-3.286C186.564,37.582,186.885,36.167,186.885,34.595z"/>
	<path style="fill:#008FD0;" d="M289.452,86.809l-30.758,3.969l-3.721-14.015h-14.138l-3.101,14.015l-31.626-3.101l24.681-82.6
		l34.478-1.736L289.452,86.809z M252.741,57.787l-4.713-21.58l-4.589,21.58H252.741z"/>
	<path style="fill:#008FD0;" d="M350.595,4.953l-3.473,26.169c-1.199-0.331-2.398-0.558-3.597-0.682
		c-1.199-0.124-2.398-0.186-3.597-0.186c-3.06,0-5.975,0.403-8.743,1.209c-2.771,0.807-5.22,2.037-7.349,3.69
		c-2.13,1.654-3.824,3.721-5.085,6.201c-1.262,2.48-1.892,5.395-1.892,8.744c0,2.15,0.341,4.01,1.023,5.581
		c0.682,1.572,1.644,2.874,2.884,3.907c1.24,1.034,2.707,1.798,4.402,2.294c1.694,0.496,3.555,0.744,5.581,0.744
		c1.529,0,3.121-0.165,4.774-0.496c1.653-0.331,3.287-0.765,4.899-1.302c1.612-0.537,3.183-1.157,4.713-1.86
		c1.529-0.703,2.935-1.426,4.217-2.17l-2.48,29.146c-1.612,0.828-3.359,1.561-5.24,2.201c-1.882,0.642-3.813,1.2-5.798,1.675
		c-1.984,0.476-3.969,0.837-5.953,1.085s-3.887,0.372-5.705,0.372c-5.251,0-10.149-0.971-14.697-2.915
		c-4.548-1.943-8.495-4.609-11.844-8c-3.349-3.389-5.984-7.389-7.906-11.999c-1.923-4.609-2.884-9.581-2.884-14.914
		c0-7.069,1.013-13.735,3.038-19.999c2.025-6.263,5.002-11.751,8.93-16.464s8.796-8.434,14.604-11.162
		c5.808-2.729,12.495-4.093,20.061-4.093c2.853,0,5.776,0.228,8.774,0.682C345.252,2.866,348.032,3.713,350.595,4.953z"/>
	<path style="fill:#008FD0;" d="M413.227,2.721c-0.248,3.886-0.476,7.731-0.683,11.534c-0.207,3.804-0.476,7.649-0.806,11.534
		l-26.293,1.364l-0.62,7.813h18.479l-1.364,19.224l-18.604,0.62l-0.62,9.054h15.379h10.914c-0.248,4.548-0.507,9.064-0.775,13.55
		c-0.27,4.486-0.507,8.982-0.713,13.487l-53.454,1.24l1.984-89.421H413.227z"/>
	<path style="fill:#F3EC60;" d="M97.991,99.729l-5.705,91.033l-28.277,1.24l0.248-47.997L51.482,182.7H40.568l-9.798-34.603
		l-0.124,40.184l-28.649,0.868l1.24-85.7l31.874-1.24l12.65,41.052l16.867-43.532H97.991z"/>
	<path style="fill:#F3EC60;" d="M178.358,146.361c0,3.762-0.434,7.39-1.302,10.883c-0.868,3.494-2.119,6.77-3.752,9.829
		c-1.633,3.06-3.618,5.86-5.953,8.402c-2.336,2.543-4.961,4.724-7.875,6.542c-2.915,1.82-6.088,3.235-9.519,4.248
		c-3.432,1.014-7.069,1.52-10.914,1.52c-3.721,0-7.266-0.475-10.635-1.426c-3.37-0.951-6.521-2.284-9.457-4
		c-2.936-1.715-5.592-3.783-7.968-6.201c-2.378-2.419-4.403-5.105-6.077-8.062c-1.675-2.956-2.977-6.129-3.907-9.519
		c-0.93-3.389-1.395-6.924-1.395-10.604c0-3.597,0.434-7.121,1.302-10.573c0.868-3.451,2.118-6.707,3.752-9.767
		c1.632-3.059,3.606-5.87,5.922-8.434c2.315-2.563,4.909-4.775,7.782-6.635c2.873-1.86,5.984-3.307,9.333-4.341
		c3.349-1.033,6.883-1.55,10.604-1.55c5.994,0,11.461,0.93,16.402,2.791c4.94,1.86,9.157,4.517,12.65,7.968
		c3.493,3.453,6.201,7.628,8.124,12.526C177.397,134.858,178.358,140.326,178.358,146.361z M150.825,147.974
		c0-1.777-0.259-3.504-0.775-5.178c-0.518-1.675-1.271-3.163-2.264-4.465c-0.992-1.303-2.223-2.356-3.689-3.163
		c-1.468-0.806-3.153-1.209-5.054-1.209c-1.944,0-3.68,0.352-5.209,1.054c-1.53,0.704-2.843,1.665-3.938,2.883
		c-1.096,1.22-1.933,2.646-2.511,4.279c-0.58,1.633-0.868,3.359-0.868,5.178c0,1.736,0.248,3.473,0.744,5.209
		s1.24,3.308,2.232,4.713c0.992,1.406,2.222,2.542,3.69,3.411c1.467,0.868,3.172,1.302,5.116,1.302c1.943,0,3.69-0.382,5.24-1.147
		c1.551-0.764,2.862-1.798,3.938-3.101c1.075-1.302,1.901-2.8,2.48-4.496C150.535,151.55,150.825,149.794,150.825,147.974z"/>
	<path style="fill:#F3EC60;" d="M267.034,101.217l-4.465,84.088l-32.494,2.977l-17.363-45.021l-2.729,45.889h-27.905l2.232-87.933
		l31.006-1.488l21.455,44.648l0.992-42.168L267.034,101.217z"/>
	<path style="fill:#F3EC60;" d="M350.687,101.341l-29.889,41.3l25.176,43.904l-28.773,5.085l-18.852-26.789l-0.992,28.029
		l-25.797,0.992l1.984-95.002l28.898,1.612l-2.232,28.029l19.223-29.642L350.687,101.341z"/>
	<path style="fill:#F3EC60;" d="M408.794,100.721c-0.248,3.886-0.476,7.731-0.683,11.534c-0.207,3.804-0.476,7.649-0.806,11.534
		l-26.293,1.364l-0.62,7.813h18.479l-1.364,19.224l-18.604,0.62l-0.62,9.054h15.379h10.914c-0.248,4.548-0.507,9.064-0.775,13.55
		c-0.27,4.486-0.507,8.982-0.713,13.487l-53.454,1.24l1.984-89.421H408.794z"/>
	<path style="fill:#F3EC60;" d="M490.586,106.178l-34.106,47.625l-1.612,38.819h-29.394l0.744-38.571l-17.735-46.013l31.626-3.969
		l4.961,26.789l15.751-26.789L490.586,106.178z"/>
	<path style="fill:#EC3B37;" d="M162.762,197.729l-5.705,91.033l-28.277,1.24l0.248-47.997L116.253,280.7h-10.914l-9.798-34.603
		l-0.124,40.184l-28.649,0.868l1.24-85.7l31.874-1.24l12.65,41.052l16.867-43.532H162.762z"/>
	<path style="fill:#EC3B37;" d="M244.431,282.809l-30.757,3.969l-3.721-14.015h-14.139l-3.101,14.015l-31.626-3.101l24.681-82.6
		l34.478-1.736L244.431,282.809z M207.721,253.787l-4.713-21.58l-4.59,21.58H207.721z"/>
	<path style="fill:#EC3B37;" d="M304.458,198.721c-0.248,3.886-0.476,7.731-0.683,11.534c-0.207,3.804-0.476,7.649-0.806,11.534
		l-26.293,1.364v7.813h22.82l-1.24,19.224l-21.704,0.62l0.124,36.711l-31.378,0.62l1.984-89.421H304.458z"/>
	<path style="fill:#EC3B37;" d="M341.107,200.829l-6.82,84.46l-26.17,1.364v-84.088L341.107,200.829z"/>
	<path style="fill:#EC3B37;" d="M421.908,282.809l-30.758,3.969l-3.721-14.015h-14.139l-3.101,14.015l-31.626-3.101l24.681-82.6
		l34.479-1.736L421.908,282.809z M385.197,253.787l-4.713-21.58l-4.589,21.58H385.197z"/>
</g>
</svg>
